<svg width="24" height="24" viewBox="0 0 24 24" fill="none" xmlns="http://www.w3.org/2000/svg">
<g clip-path="url(#clip0_15_563)">
<path d="M12.4114 22C13.4737 22 14.3429 21.1 14.3429 20H10.4799C10.4799 21.1 11.3491 22 12.4114 22ZM18.2058 16V11C18.2058 7.93 16.6317 5.36 13.86 4.68V4C13.86 3.17 13.213 2.5 12.4114 2.5C11.6098 2.5 10.9628 3.17 10.9628 4V4.68C8.20081 5.36 6.61701 7.92 6.61701 11V16L4.68555 18V19H20.1373V18L18.2058 16ZM16.2743 17H8.54848V11C8.54848 8.52 10.0067 6.5 12.4114 6.5C14.8161 6.5 16.2743 8.52 16.2743 11V17Z" fill="#7B61FF"/>
</g>
<defs>
<clipPath id="clip0_15_563">
<rect width="23.1776" height="24" fill="white" transform="translate(0.82251)"/>
</clipPath>
</defs>
</svg>
